<svg t="1616218484169" class="icon" viewBox="0 0 1024 1024" version="1.1" xmlns="http://www.w3.org/2000/svg" p-id="15775" width="200" height="200"><path d="M896 320l-128 0 0-9C768 174 658 64 521 64l-16 0C368 64 256 174 256 311l0 9L128 320 64 960l896 0L896 320zM320 311c0-101.4 83.6-183 185-183l15 0 1 0c101.4 0 183 81.6 183 183l0 9L320 320 320 311zM135.6 896l49.8-512L256 384l0 72.6c-19.2 11-32 31.8-32 55.4 0 35.4 28.6 64 64 64s64-28.6 64-64c0-23.6-12.8-44.4-32-55.4L320 384l384 0 0 72.6c-19.2 11-32 31.8-32 55.4 0 35.4 28.6 64 64 64s64-28.6 64-64c0-23.6-12.8-44.4-32-55.4L768 384l70.8 0 49.8 512L135.6 896z" p-id="15776" fill="#ff8198"></path></svg>