<svg t="1616218367866" class="icon" viewBox="0 0 1024 1024" version="1.1" xmlns="http://www.w3.org/2000/svg" p-id="12174" width="200" height="200"><path d="M680 442.666667a237.333333 237.333333 0 1 0 237.333333 237.333333A237.333333 237.333333 0 0 0 680 442.666667z m0 400a162.666667 162.666667 0 1 1 162.666667-162.666667 162.826667 162.826667 0 0 1-162.666667 162.666667z" p-id="12175" fill="#ff8198"></path><path d="M459.84 844.16a5.333333 5.333333 0 0 0-4.426667-2.08c-8.906667 0.373333-17.973333 0.586667-27.04 0.586667-69.333333 0-135.093333-11.306667-185.173333-32-44.16-18.08-59.04-36.373333-61.6-41.973334v-72.266666c54.773333 30.293333 135.253333 50.346667 225.92 53.013333a5.333333 5.333333 0 0 0 5.333333-6.453333A307.253333 307.253333 0 0 1 405.333333 679.84a5.333333 5.333333 0 0 0-5.333333-5.333333c-58.666667-2.506667-113.546667-13.173333-156.8-31.2-44.16-18.08-59.04-36.373333-61.6-41.973334V523.573333c57.706667 32 144 52.426667 240.48 53.333334a5.333333 5.333333 0 0 0 4.96-3.306667 275.733333 275.733333 0 0 1 37.333333-63.573333 5.333333 5.333333 0 0 0-4.48-8.533334q-15.626667 0.8-31.466666 0.8c-69.333333 0-135.093333-11.306667-185.173334-32-44.16-18.133333-59.04-36.426667-61.6-42.026666V350.24c58.986667 32.64 147.733333 53.333333 247.04 53.333333s188-20.746667 246.986667-53.333333v49.44a5.333333 5.333333 0 0 0 5.333333 5.333333 294.24 294.24 0 0 1 62.773334 7.786667 5.333333 5.333333 0 0 0 6.453333-5.333333V255.146667c0-81.973333-144-148.48-321.653333-148.48S106.666667 173.173333 106.666667 255.146667v513.706666C106.666667 850.826667 250.666667 917.333333 428.373333 917.333333a672.746667 672.746667 0 0 0 87.786667-5.653333 5.333333 5.333333 0 0 0 2.4-9.493333 277.866667 277.866667 0 0 1-58.72-58.026667zM243.2 213.333333c50.08-20.533333 115.84-32 185.173333-32s135.093333 11.306667 185.173334 32c44.106667 18.08 58.986667 36.373333 61.6 41.973334-2.613333 5.333333-17.493333 23.893333-61.6 41.973333-50.133333 20.533333-115.893333 32-185.173334 32S293.333333 317.653333 243.2 297.173333c-44.16-18.133333-59.04-36.426667-61.6-42.026666 2.56-5.6 17.44-23.893333 61.6-41.813334z" p-id="12176" fill="#ff8198"></path><path d="M680.106667 570.666667A278.613333 278.613333 0 0 1 570.666667 679.52v0.8A277.92 277.92 0 0 1 679.946667 789.333333s63.413333-83.786667 109.386666-109.066666v-0.746667A277.706667 277.706667 0 0 1 680.106667 570.666667z" p-id="12177" fill="#ff8198"></path></svg>