<svg t="1616218252773" class="icon" viewBox="0 0 1024 1024" version="1.1" xmlns="http://www.w3.org/2000/svg" p-id="9513" width="200" height="200"><path d="M768 85.312H256c-105.984 0-192 85.056-192 190.08v337.344l0.192 8.96c4.736 100.864 88.832 181.12 191.808 181.12l61.44-0.064-39.68 107.136-1.024 3.584a21.376 21.376 0 0 0 32.32 21.952l212.288-132.672H768c105.984 0 192-84.992 192-190.016V275.392c0-105.024-86.016-190.08-192-190.08zM256 128h512c82.56 0 149.312 66.048 149.312 147.392v337.344c0 81.28-66.752 147.392-149.312 147.392H515.264l-3.904 0.32a21.312 21.312 0 0 0-7.36 2.88l-164.48 102.72 28.672-77.184a21.312 21.312 0 0 0-20.032-28.8H256c-82.56 0-149.312-65.984-149.312-147.328V275.392C106.688 194.048 173.44 128 256 128z" p-id="9514" fill="#ff8198"></path><path d="M789.312 341.312c11.776 0 21.376 10.048 21.376 22.4a22.144 22.144 0 0 1-17.536 22.08l-3.84 0.32H234.688a21.888 21.888 0 0 1-21.376-22.4c0-10.944 7.552-20.096 17.536-22.016l3.84-0.384h554.624zM491.584 512c11.776 0 21.312 10.048 21.312 22.4a22.144 22.144 0 0 1-17.472 22.016l-3.84 0.384H234.688a21.888 21.888 0 0 1-21.376-22.4c0-11.008 7.552-20.16 17.536-22.016L234.688 512H491.52z" p-id="9515" fill="#ff8198"></path></svg>