<svg t="1616212435823" class="icon" viewBox="0 0 1024 1024" version="1.1" xmlns="http://www.w3.org/2000/svg" p-id="7866" width="200" height="200"><path d="M746.666667 512a234.666667 234.666667 0 1 1 0 469.333333 234.666667 234.666667 0 0 1 0-469.333333zM586.666667 85.333333A96 96 0 0 1 682.666667 181.333333v295.424a275.370667 275.370667 0 0 0-64 23.808V181.333333a32 32 0 0 0-32-32h-320a32 32 0 0 0-32 32v661.333334c0 17.664 14.336 32 32 32l233.941333 0.042666c12.245333 23.509333 27.776 45.056 45.952 64L266.666667 938.666667A96 96 0 0 1 170.666667 842.666667V181.333333A96 96 0 0 1 266.666667 85.333333h320z m160 512l-3.84 0.298667a21.333333 21.333333 0 0 0-17.152 17.152L725.333333 618.666667V725.333333L618.581333 725.333333l-3.84 0.341334a21.333333 21.333333 0 0 0-17.152 17.152l-0.341333 3.84 0.341333 3.84a21.333333 21.333333 0 0 0 17.152 17.152l3.84 0.341333H725.333333v106.794667l0.341334 3.84a21.333333 21.333333 0 0 0 17.152 17.152l3.84 0.341333 3.84-0.341333a21.333333 21.333333 0 0 0 17.152-17.152l0.341333-3.84V768l106.837333 0.042667 3.84-0.341334a21.333333 21.333333 0 0 0 17.152-17.152l0.341334-3.84-0.341334-3.84a21.333333 21.333333 0 0 0-17.194666-17.152l-3.84-0.341333H768v-106.666667l-0.341333-3.84a21.333333 21.333333 0 0 0-17.152-17.194666L746.666667 597.333333z m-373.376 149.504L469.333333 746.624c0 22.058667 2.56 43.52 7.424 64l-103.381333 0.213333a32 32 0 0 1-0.085333-64z" p-id="7867" fill="#dbdbdb"></path></svg>